<svg xmlns="http://www.w3.org/2000/svg" width="24" height="24" viewBox="0 0 512 512">
  <defs>
    <linearGradient id="bg" x1="0" y1="0" x2="1" y2="1">
      <stop offset="0%" stop-color="#25D366"/>
      <stop offset="100%" stop-color="#128C48"/>
    </linearGradient>
  </defs>
  <rect width="512" height="512" rx="100" ry="100" fill="url(#bg)"/>
  <g transform="translate(256, 256)">
    <!-- Speech bubble -->
    <path d="M-8 -140 C-95 -140 -165 -75 -165 5 C-165 40 -150 72 -125 97 L-140 145 L-85 120 C-62 132 -36 140 -8 140 C80 140 150 75 150 -5 C150 -80 80 -140 -8 -140 Z" 
          fill="white" opacity="0.95"/>
    <!-- Phone icon -->
    <g transform="translate(-8, 0) scale(0.55)">
      <path d="M-90 55 C-110 40 -120 10 -105 -20 C-85 -60 -40 -95 10 -105 C45 -112 80 -100 100 -75 C110 -60 105 -35 85 -25 L65 -15 C55 -10 42 -15 35 -25 C28 -35 15 -40 5 -35 C-15 -25 -35 -5 -40 15 C-42 25 -38 38 -28 45 C-18 52 -15 65 -25 72 L-40 85 C-55 95 -75 90 -90 75 Z"
            fill="#25D366"/>
    </g>
  </g>
</svg>